<?xml version="1.0" encoding="utf-8"?>
<!-- Generator: Adobe Illustrator 13.0.2, SVG Export Plug-In  -->
<!DOCTYPE svg PUBLIC "-//W3C//DTD SVG 1.1//EN" "http://www.w3.org/Graphics/SVG/1.1/DTD/svg11.dtd" [
	<!ENTITY ns_flows "http://ns.adobe.com/Flows/1.0/">
]>
<svg version="1.1"
	 xmlns="http://www.w3.org/2000/svg" xmlns:xlink="http://www.w3.org/1999/xlink" xmlns:a="http://ns.adobe.com/AdobeSVGViewerExtensions/3.0/"
	 x="0px" y="0px" width="47px" height="38px" viewBox="-0.1 -0.1 47 38" enable-background="new -0.1 -0.1 47 38"
	 xml:space="preserve">
<defs>
</defs>
<defs>
	<filter id="Adobe_OpacityMaskFilter" filterUnits="userSpaceOnUse" x="0" y="0.062" width="26.77" height="37.738">
		<feColorMatrix  type="matrix" values="1 0 0 0 0  0 1 0 0 0  0 0 1 0 0  0 0 0 1 0"/>
	</filter>
</defs>
<mask maskUnits="userSpaceOnUse" x="0" y="0.062" width="26.77" height="37.738" id="mask-2_1_">
	<g filter="url(#Adobe_OpacityMaskFilter)">
		<polygon id="path-1_1_" fill="#FFFFFF" points="0,0.062 26.77,0.062 26.77,37.8 0,37.8 		"/>
	</g>
</mask>
<path id="Fill-1_1_" mask="url(#mask-2_1_)" d="M0,37.393V26.77h2.24c0.977,3.079,2.428,5.406,4.352,6.982
	c1.925,1.576,4.283,2.363,7.08,2.363c2.508,0,4.585-0.634,6.232-1.901c1.646-1.269,2.47-2.88,2.47-4.836
	c0-1.051-0.196-1.915-0.589-2.595s-1.058-1.309-1.996-1.889c-1.073-0.67-3.188-1.35-6.347-2.037
	c-1.168-0.254-2.06-0.453-2.672-0.598c-3.695-0.888-6.381-2.191-8.056-3.913c-1.676-1.721-2.514-4.031-2.514-6.928
	c0-3.387,1.116-6.127,3.346-8.219c2.231-2.092,5.146-3.138,8.746-3.138c1.475,0,2.848,0.194,4.121,0.584
	c1.274,0.39,2.475,0.974,3.604,1.752l2.097-1.603h1.839l0.229,9.563H22.26c-0.747-2.808-1.992-4.945-3.734-6.412
	s-3.916-2.201-6.52-2.201c-2.164,0-3.939,0.499-5.328,1.495C5.29,4.237,4.596,5.496,4.596,7.018c0,2.282,2.556,3.958,7.669,5.026
	c0.688,0.146,1.215,0.254,1.58,0.327c4.768,1.05,8.113,2.54,10.038,4.469c1.924,1.93,2.887,4.669,2.887,8.22
	c0,3.658-1.23,6.696-3.691,9.114s-5.558,3.628-9.292,3.628c-1.895,0-3.561-0.205-4.997-0.612c-1.436-0.407-2.776-1.056-4.021-1.942
	l-2.642,2.146H0z"/>
<path id="Fill-4_1_" fill="#121212" d="M39.287,0v6.483h4.398v1.686h-4.398v15.14c0,0.942,0.125,1.586,0.375,1.93
	c0.25,0.345,0.715,0.518,1.396,0.518c0.678,0,1.236-0.286,1.676-0.857c0.438-0.57,0.701-1.346,0.791-2.324H45
	c-0.107,1.885-0.857,3.395-2.252,4.526c-1.395,1.133-3.193,1.699-5.393,1.699c-2.074,0-3.496-0.35-4.264-1.046
	c-0.77-0.698-1.154-2.18-1.154-4.445V8.168h-3.137V6.483h3.137V0H39.287z"/>
<defs>
	<filter id="Adobe_OpacityMaskFilter_1_" filterUnits="userSpaceOnUse" x="27.9" y="33.3" width="18.9" height="3.601">
		<feColorMatrix  type="matrix" values="1 0 0 0 0  0 1 0 0 0  0 0 1 0 0  0 0 0 1 0"/>
	</filter>
</defs>
<mask maskUnits="userSpaceOnUse" x="27.9" y="33.3" width="18.9" height="3.601" id="mask-4_1_">
	<g filter="url(#Adobe_OpacityMaskFilter_1_)">
		<polygon id="path-3_1_" fill="#FFFFFF" points="0,37.8 47.701,37.8 47.701,0 0,0 		"/>
	</g>
</mask>
<polygon id="Fill-6_1_" mask="url(#mask-4_1_)" fill="#121212" points="27.9,36.9 46.801,36.9 46.801,33.3 27.9,33.3 "/>
</svg>
