<?xml version="1.0" encoding="utf-8"?>
<!-- Generator: Adobe Illustrator 23.1.1, SVG Export Plug-In . SVG Version: 6.00 Build 0)  -->
<svg version="1.1" id="Ebene_1" xmlns="http://www.w3.org/2000/svg" xmlns:xlink="http://www.w3.org/1999/xlink" x="0px" y="0px"
	 viewBox="0 0 207 48" style="enable-background:new 0 0 207 48;" xml:space="preserve">
<style type="text/css">
	.st0{fill:#2F91D0;}
	.st1{fill:#156DB5;}
	.st2{fill:#35B8C1;}
	.st3{fill:url(#SVGID_1_);}
	.st4{fill:url(#SVGID_2_);}
	.st5{fill:#FFFFFF;}
</style>
<g>
	<g>
		<path class="st1" d="M206.6,22.4L194.7,1.7c-0.6-1-1.7-1.7-2.9-1.7h-23.5c-1.2,0-2.3,0.6-2.9,1.7l-11.9,20.7c-0.6,1-0.6,2.2,0,3.2
			l11.9,20.7c0.6,1,1.7,1.7,2.9,1.7h23.5c1.2,0,2.3-0.6,2.9-1.7l11.9-20.7C207.1,24.6,207.1,23.4,206.6,22.4z M180,36.5
			c-6.9,0-12.5-5.6-12.5-12.5s5.6-12.5,12.5-12.5s12.5,5.6,12.5,12.5S186.9,36.5,180,36.5z"/>
	</g>
</g>
<path class="st1" d="M42.5,0h-9.8c-0.6,0-1.1,0.5-1.1,1.1V18H12V1.1C12,0.5,11.5,0,10.9,0H1.1C0.5,0,0,0.5,0,1.1v45.8
	C0,47.5,0.5,48,1.1,48h9.8c0.6,0,1.1-0.5,1.1-1.1V29.2h19.6v17.7c0,0.6,0.5,1.1,1.1,1.1h9.8c0.6,0,1.1-0.5,1.1-1.1V1.1
	C43.6,0.5,43.1,0,42.5,0z"/>
<path class="st1" d="M55.9,46.9V1.1C55.9,0.5,56.4,0,57,0h35.2c0.6,0,1.1,0.5,1.1,1.1v8.7c0,0.6-0.5,1.1-1.1,1.1H67.9V18h18.3
	c0.6,0,1.1,0.5,1.1,1.1v9c0,0.6-0.5,1.1-1.1,1.1H67.9v8.2h25.4c0.6,0,1.1,0.5,1.1,1.1v8.5c0,0.6-0.5,1.1-1.1,1.1H57
	C56.4,48,55.9,47.5,55.9,46.9z"/>
<path class="st1" d="M105.3,46.9V1.1c0-0.6,0.5-1.1,1.1-1.1h22.8c5.8,0,9.9,1.4,12.5,4.3c2.6,2.9,3.9,6.6,3.9,11.2
	c0,2.8-0.8,5.6-2.3,8.3c-1.6,2.7-3.7,4.6-6.4,5.7l9.5,16.9c0.4,0.7-0.1,1.6-1,1.6H134c-0.4,0-0.8-0.2-1-0.6l-8.8-16.3h-7v15.8
	c0,0.6-0.5,1.1-1.1,1.1h-9.8C105.7,48,105.3,47.5,105.3,46.9z M117.3,21.2h11.2c3.6,0,5.4-1.9,5.4-5.7c0-1.6-0.4-2.9-1.3-4
	c-0.8-1.1-2.2-1.6-4.1-1.6h-11.2V21.2z"/>
<g>
	<circle class="st2" cx="180" cy="24" r="8"/>
</g>
</svg>
