<svg width="100%" height="100%" viewBox="0 0 347 32" fill="none" xmlns="http://www.w3.org/2000/svg">
<path d="M52.6154 1.30624H56.0815V23.7806H52.6154V1.30624ZM84.8582 4.46849H81.3763V8.22266H78.347V11.3374H81.3763V18.9344C81.3763 22.7329 83.0951 23.9136 86.1529 23.9136C86.9887 23.9231 87.8217 23.8166 88.6282 23.597V20.6564C88.165 20.7265 87.6976 20.7656 87.2291 20.7735C85.5103 20.7735 84.8424 20.1024 84.8424 18.7635V11.3374H88.7833V8.22266H84.8582V4.46849ZM71.1647 16.8769C71.1647 19.2351 69.7656 20.8083 67.5815 20.8083C65.1947 20.8083 64.1438 19.1496 64.1438 16.9339V8.22266H60.6809V17.7727C60.6809 21.3243 62.6023 24.1035 66.5052 24.1035C67.4317 24.1059 68.3455 23.8879 69.1712 23.4674C69.9968 23.0469 70.7105 22.436 71.2533 21.6851V23.7806H74.6308V8.22266H71.1647V16.8769ZM23.2594 20.8906C20.61 20.8906 18.6569 18.8236 18.6569 15.9114C18.6569 12.9993 20.6954 11.0494 23.2278 11.0494C25.8202 11.0494 26.9566 12.7397 27.3048 13.9615L30.4512 12.9138C29.7802 10.2897 27.1054 7.90295 23.2594 7.90295C22.1922 7.8891 21.1329 8.08761 20.1432 8.48693C19.1534 8.88624 18.253 9.4784 17.4942 10.2289C16.7354 10.9795 16.1334 11.8734 15.7233 12.8588C15.3132 13.8441 15.1031 14.9011 15.1053 15.9684C15.089 17.0345 15.2874 18.093 15.6887 19.0808C16.0901 20.0686 16.6861 20.9655 17.4414 21.7181C18.1966 22.4707 19.0957 23.0636 20.0849 23.4614C21.0741 23.8593 22.1332 24.054 23.1993 24.0339C27.4219 24.0339 29.8466 21.3243 30.5367 18.9376L27.3713 17.9183C26.8996 19.1148 25.9405 20.8906 23.2594 20.8906ZM6.72016 14.3097C4.62466 14.0185 3.66238 13.6387 3.66238 12.3883C3.66238 11.3976 4.82725 10.698 6.04909 10.698C7.99898 10.698 8.84415 11.8344 9.10688 12.8821L12.0539 12.1826C11.8513 10.6379 10.2781 7.90295 6.17254 7.90295C2.70642 7.90295 0.319707 10.2042 0.319707 12.6796C0.319707 16.1172 2.85203 16.9908 5.67874 17.4562C7.89453 17.8043 8.82516 18.1842 8.82516 19.406C8.82516 20.4823 7.87553 21.2103 6.23269 21.2103C4.45689 21.2103 3.26354 20.1024 3.00081 18.7635L0 19.52C0.202586 21.2673 1.94989 24.0339 6.23269 24.0339C10.3667 24.0339 12.3198 21.6472 12.3198 19.2003C12.3103 15.7943 9.63234 14.6864 6.72016 14.3097ZM42.1727 7.90295C41.2715 7.90278 40.3823 8.1103 39.5742 8.50939C38.7661 8.90849 38.0609 9.48843 37.5132 10.2042V1.30624H34.0345V23.7806H37.5006V15.1232C37.5006 12.7619 38.8997 11.1792 41.0838 11.1792C43.4705 11.1792 44.5215 12.8378 44.5215 15.0536V23.7616H47.9876V14.1926C47.9844 10.6695 46.12 7.90295 42.1601 7.90295H42.1727ZM164.006 7.90295C163.105 7.90278 162.216 8.1103 161.408 8.50939C160.6 8.90849 159.894 9.48843 159.347 10.2042V1.30624H155.868V23.7806H159.334V15.1232C159.334 12.7619 160.733 11.1792 162.917 11.1792C165.304 11.1792 166.355 12.8378 166.355 15.0536V23.7616H169.818V14.1926C169.818 10.6695 167.953 7.90295 163.993 7.90295H164.006ZM188.76 17.0162H176.953C177.01 19.4029 179.225 21.0647 181.495 21.0647C183.394 21.0647 184.977 20.3367 185.629 18.4438L188.513 19.4345C187.639 22.3467 184.638 24.0655 181.549 24.0655C176.946 24.0655 173.395 20.5994 173.395 15.9716C173.395 11.5748 176.715 7.90612 181.229 7.90612C186.063 7.90612 188.801 11.2551 188.801 15.9431C188.811 16.3016 188.793 16.6604 188.747 17.0162H188.76ZM185.293 14.3952C185.176 12.1794 183.394 10.8721 181.245 10.8721C180.243 10.8415 179.267 11.1857 178.506 11.8373C177.745 12.4889 177.254 13.401 177.13 14.3952H185.293ZM145.093 20.8906C142.443 20.8906 140.49 18.8236 140.49 15.9114C140.49 12.9993 142.529 11.0494 145.061 11.0494C147.654 11.0494 148.79 12.7397 149.138 13.9615L152.281 12.9106C151.61 10.2897 148.932 7.90295 145.09 7.90295C144.022 7.8891 142.963 8.08761 141.973 8.48693C140.984 8.88624 140.083 9.4784 139.324 10.2289C138.566 10.9795 137.964 11.8734 137.554 12.8588C137.143 13.8441 136.933 14.9011 136.936 15.9684C136.919 17.0345 137.118 18.093 137.519 19.0808C137.92 20.0686 138.516 20.9655 139.272 21.7181C140.027 22.4707 140.926 23.0636 141.915 23.4614C142.904 23.8593 143.963 24.054 145.029 24.0339C149.252 24.0339 151.677 21.3243 152.367 18.9376L149.201 17.9183C148.733 19.1148 147.774 20.8906 145.093 20.8906V20.8906ZM114.388 10.6125V8.22266H110.995V23.7743H114.461V15.8829C114.461 13.205 115.86 11.6318 118.51 11.6318C118.841 11.642 119.172 11.6716 119.5 11.7204V8.16568C119.221 8.11438 118.939 8.08475 118.655 8.07705C117.781 8.08155 116.925 8.31846 116.172 8.76347C115.42 9.20849 114.8 9.84558 114.376 10.6094L114.388 10.6125ZM106.981 15.9273C106.991 16.2869 106.971 16.6468 106.924 17.0035H95.13C95.187 19.3902 97.4028 21.0521 99.6724 21.0521C101.572 21.0521 103.154 20.324 103.806 18.4311L106.69 19.4219C105.816 22.334 102.816 24.0529 99.7262 24.0529C95.1237 24.0529 91.5721 20.5867 91.5721 15.9589C91.5721 11.5622 94.8926 7.89346 99.4064 7.89346C104.243 7.90295 106.981 11.252 106.981 15.9273ZM103.458 14.3825C103.341 12.1668 101.559 10.8594 99.4096 10.8594C98.4082 10.8289 97.4314 11.1731 96.6703 11.8246C95.9092 12.4762 95.4187 13.3884 95.2946 14.3825H103.458ZM128.541 14.3097C126.445 14.0185 125.483 13.6387 125.483 12.3883C125.483 11.3976 126.648 10.698 127.87 10.698C129.82 10.698 130.665 11.8344 130.928 12.8821L133.868 12.1826C133.666 10.6379 132.092 7.90295 127.987 7.90295C124.521 7.90295 122.134 10.2042 122.134 12.6796C122.134 16.1172 124.666 16.9908 127.493 17.4562C129.709 17.8043 130.64 18.1842 130.64 19.406C130.64 20.4823 129.69 21.2103 128.047 21.2103C126.271 21.2103 125.078 20.1024 124.815 18.7635L121.814 19.52C122.017 21.2673 123.764 24.0339 128.047 24.0339C132.181 24.0339 134.134 21.6472 134.134 19.2003C134.144 15.7943 131.466 14.6864 128.541 14.3097ZM67.6543 1.30624L69.87 4.47165H73.7635L71.5477 1.30624H63.7576L61.5419 4.47165H65.4353L67.6543 1.30624Z" fill="white"/>
<path d="M212.611 14.8466V24.1035H214.889V15.024C214.889 12.3919 216.486 10.1442 219.266 10.1442C222.164 10.1442 223.347 12.2736 223.347 14.9057V24.1035H225.654V14.3438C225.654 10.6765 223.643 8.04436 219.828 8.04436C217.343 8.04436 215.599 9.13863 214.268 11.1793C213.321 9.10906 211.517 8.01479 209.21 8.01479C206.844 8.01479 205.395 9.13863 204.123 11.061V8.31054H201.846V24.1035H204.153V15.1128C204.153 12.5397 205.78 10.1146 208.53 10.1146C211.369 10.1146 212.611 12.244 212.611 14.8466Z" fill="white"/>
<path d="M240.489 13.9298V14.9945H236.112C233.302 14.9945 229.872 16.1183 229.872 19.549V19.7264C229.872 22.3882 231.971 24.3697 235.166 24.3697C237.531 24.3697 239.247 23.2754 240.489 21.3235H240.519V24.1035H242.766V13.9002C242.766 13.3974 242.648 12.1553 242.293 11.2976C241.524 9.55268 239.868 8.04436 236.526 8.04436C232.001 8.04436 230.227 11.5046 230.108 12.8355L232.326 13.3087C232.592 11.8004 233.805 10.085 236.467 10.085C239.099 10.085 240.489 11.3863 240.489 13.9298ZM236.082 16.8872H240.489V17.4492C240.489 20.3475 238.389 22.329 235.58 22.329C233.687 22.329 232.178 21.3235 232.178 19.549C232.178 17.4196 234.397 16.8872 236.082 16.8872Z" fill="white"/>
<path d="M250.348 11.4455V8.31054H248.071V24.1035H250.378V16.3845C250.378 13.5749 251.59 10.4991 255.317 10.4991C255.612 10.4991 255.908 10.5287 256.204 10.5582V8.10351C256.026 8.07394 255.583 8.07394 255.435 8.07394C253.631 8.07394 251.531 8.99076 250.348 11.4455Z" fill="white"/>
<path d="M261.908 24.1035V16.207H261.997L269.864 24.1035H273.088L264.393 15.4085L272.703 8.31054H269.42L261.908 14.7283V0H259.602V24.1035H261.908Z" fill="white"/>
<path d="M276.185 16.9168H288.962C288.991 16.6802 288.991 16.414 288.991 16.1479C288.991 11.5342 286.418 8.04436 281.538 8.04436C277.102 8.04436 273.849 11.8891 273.849 16.1774C273.849 20.732 277.28 24.3697 281.864 24.3697C284.999 24.3697 287.838 22.6543 288.784 19.6081L286.714 18.9575C285.975 21.1756 284.171 22.329 281.834 22.329C278.758 22.329 276.363 19.9926 276.185 16.9168ZM286.655 14.9649H276.215C276.599 12.3327 278.788 10.0555 281.538 10.0555C284.555 10.0555 286.359 12.0961 286.655 14.9649Z" fill="white"/>
<path d="M298.504 24.2218C298.918 24.2218 299.835 24.1331 300.308 23.9852V22.0628C299.953 22.1516 299.391 22.1811 298.889 22.1811C297.144 22.1811 296.316 21.3826 296.316 19.963V10.3512H300.308V8.31054H296.316V3.75601H294.038V8.31054H291.111V10.3512H294.038V20.0222C294.038 22.329 295.074 24.2218 298.504 24.2218Z" fill="white"/>
<path d="M303.943 2.66174C303.943 3.60813 304.711 4.37708 305.658 4.37708C306.634 4.37708 307.403 3.60813 307.403 2.66174C307.403 1.68577 306.634 0.916821 305.658 0.916821C304.711 0.916821 303.943 1.68577 303.943 2.66174ZM306.841 8.31054H304.504V24.1035H306.841V8.31054Z" fill="white"/>
<path d="M323.725 14.9057V24.1035H326.031V14.3438C326.031 10.647 323.932 8.01479 320.057 8.01479C317.721 8.01479 315.858 9.07948 314.616 11.2089V8.31054H312.338V24.1035H314.645V15.1128C314.645 12.3031 316.597 10.1146 319.348 10.1146C322.275 10.1146 323.725 12.0961 323.725 14.9057Z" fill="white"/>
<path d="M343.712 20.5841V24.2514C343.712 28.3623 341.11 29.9889 338.064 29.9889C334.396 29.9889 332.858 27.7116 332.385 25.878L330.256 26.5878C331.084 29.9298 334.012 32 338.093 32C342.884 32 346.019 29.2495 346.019 24.1627V8.31054H343.742V11.6229C342.5 9.7597 340.666 8.04436 337.59 8.04436C333.125 8.04436 330.197 12.0074 330.197 16.1183C330.197 20.4362 333.065 24.1627 337.59 24.1627C340.577 24.1627 342.5 22.5952 343.712 20.5841ZM338.064 22.1516C334.603 22.1516 332.563 19.4307 332.563 16.1774C332.563 12.7468 334.603 10.085 338.064 10.085C341.346 10.085 343.742 12.9834 343.742 16.0887C343.742 19.3124 341.406 22.1516 338.064 22.1516Z" fill="white"/>
</svg>
